<?xml version="1.0" encoding="UTF-8" standalone="no"?>
<!-- Created with Inkscape (http://www.inkscape.org/) -->

<svg
   width="32"
   height="32"
   viewBox="0 0 32 32"
   version="1.1"
   id="svg5"
   xml:space="preserve"
   inkscape:version="1.2.2 (b0a8486541, 2022-12-01)"
   sodipodi:docname="vi.svg"
   xmlns:inkscape="http://www.inkscape.org/namespaces/inkscape"
   xmlns:sodipodi="http://sodipodi.sourceforge.net/DTD/sodipodi-0.dtd"
   xmlns="http://www.w3.org/2000/svg"
   xmlns:svg="http://www.w3.org/2000/svg"><sodipodi:namedview
     id="namedview7"
     pagecolor="#ffffff"
     bordercolor="#666666"
     borderopacity="1.0"
     inkscape:showpageshadow="2"
     inkscape:pageopacity="0.0"
     inkscape:pagecheckerboard="0"
     inkscape:deskcolor="#d1d1d1"
     inkscape:document-units="px"
     showgrid="true"
     inkscape:zoom="19.357048"
     inkscape:cx="8.1882319"
     inkscape:cy="15.239927"
     inkscape:window-width="1920"
     inkscape:window-height="1008"
     inkscape:window-x="0"
     inkscape:window-y="0"
     inkscape:window-maximized="1"
     inkscape:current-layer="layer1" /><defs
     id="defs2"><filter
       inkscape:collect="always"
       style="color-interpolation-filters:sRGB"
       id="filter972"
       x="-0.061439999"
       y="-0.078994284"
       width="1.12288"
       height="1.1579886"><feGaussianBlur
         inkscape:collect="always"
         stdDeviation="0.4608"
         id="feGaussianBlur974" /></filter></defs><g
     inkscape:label="Layer 1"
     inkscape:groupmode="layer"
     id="layer1"><rect
       style="fill:#c1f2ff;fill-opacity:1;stroke-width:0;stroke-linecap:round;stroke-linejoin:round"
       id="rect916"
       width="32"
       height="32"
       x="0"
       y="0" /><path
       id="rect302"
       style="fill:#45423a;stroke-width:0;stroke-linecap:round;stroke-linejoin:round;fill-opacity:1;filter:url(#filter972)"
       d="M 7,9.0000011 V 17 H 9.0000009 V 9.0000011 Z M 9.0000009,17 v 4 h 1.9999981 v -4 z m 1.9999981,4 v 2 H 13 V 21 Z M 13,21 h 2 v -4 h -2 z m 2,-4 h 1.999999 V 9.0000011 H 15 Z M 18.999999,9.0000011 V 11.000002 H 21 V 21 h -2.000001 v 2 H 25 v -2 h -2 v -9.999998 h 2 V 9 Z"
       inkscape:label="shadow" /><path
       id="path970"
       style="fill:#45423a;stroke-width:0;stroke-linecap:round;stroke-linejoin:round;fill-opacity:1"
       d="M 7,9.0000011 V 17 H 9.0000009 V 9.0000011 Z M 9.0000009,17 v 4 h 1.9999981 v -4 z m 1.9999981,4 v 2 H 13 V 21 Z M 13,21 h 2 v -4 h -2 z m 2,-4 h 1.999999 V 9.0000011 H 15 Z M 18.999999,9.0000011 V 11.000002 H 21 V 21 h -2.000001 v 2 H 25 v -2 h -2 v -9.999998 h 2 V 9 Z"
       inkscape:label="VI" /></g></svg>
