<?xml version="1.0" encoding="UTF-8" standalone="no"?>
<svg
   width="64px"
   height="64px"
   viewBox="0 0 64 64"
   version="1.1"
   id="svg3"
   sodipodi:docname="macos_icon.svg"
   inkscape:version="1.3.2 (091e20ef0f, 2023-11-25)"
   xmlns:inkscape="http://www.inkscape.org/namespaces/inkscape"
   xmlns:sodipodi="http://sodipodi.sourceforge.net/DTD/sodipodi-0.dtd"
   xmlns:xlink="http://www.w3.org/1999/xlink"
   xmlns="http://www.w3.org/2000/svg"
   xmlns:svg="http://www.w3.org/2000/svg">
  <sodipodi:namedview
     id="namedview3"
     pagecolor="#ffffff"
     bordercolor="#666666"
     borderopacity="1.0"
     inkscape:showpageshadow="2"
     inkscape:pageopacity="0.0"
     inkscape:pagecheckerboard="0"
     inkscape:deskcolor="#d1d1d1"
     inkscape:zoom="12.578125"
     inkscape:cx="32"
     inkscape:cy="32"
     inkscape:window-width="1920"
     inkscape:window-height="1008"
     inkscape:window-x="0"
     inkscape:window-y="0"
     inkscape:window-maximized="1"
     inkscape:current-layer="svg3" />
  <defs
     id="defs1">
    <path
       d="M14.7423399,-3.97072118e-16 L37.2576601,5.95608177e-16 C42.3838929,-3.46065503e-16 44.2427887,0.533747264 46.1168628,1.53601305 C47.9909369,2.53827883 49.4617212,4.00906313 50.463987,5.8831372 C51.4662527,7.75721128 52,9.61610715 52,14.7423399 L52,37.2576601 C52,42.3838929 51.4662527,44.2427887 50.463987,46.1168628 C49.4617212,47.9909369 47.9909369,49.4617212 46.1168628,50.463987 C44.2427887,51.4662527 42.3838929,52 37.2576601,52 L14.7423399,52 C9.61610715,52 7.75721128,51.4662527 5.8831372,50.463987 C4.00906313,49.4617212 2.53827883,47.9909369 1.53601305,46.1168628 C0.533747264,44.2427887 1.15355168e-16,42.3838929 -1.98536059e-16,37.2576601 L3.97072118e-16,14.7423399 C-2.30710335e-16,9.61610715 0.533747264,7.75721128 1.53601305,5.8831372 C2.53827883,4.00906313 4.00906313,2.53827883 5.8831372,1.53601305 C7.75721128,0.533747264 9.61610715,2.30710335e-16 14.7423399,-3.97072118e-16 Z"
       id="path-7ke33lxyta-1" />
    <filter
       x="-0.046153846"
       y="-0.046153846"
       width="1.0923077"
       height="1.1307692"
       filterUnits="objectBoundingBox"
       id="filter-7ke33lxyta-3">
      <feOffset
         dx="0"
         dy="2"
         in="SourceAlpha"
         result="shadowOffsetOuter1"
         id="feOffset1" />
      <feGaussianBlur
         stdDeviation="1"
         in="shadowOffsetOuter1"
         result="shadowBlurOuter1"
         id="feGaussianBlur1" />
      <feColorMatrix
         values="0 0 0 0 0   0 0 0 0 0   0 0 0 0 0  0 0 0 0.3 0"
         type="matrix"
         in="shadowBlurOuter1"
         id="feColorMatrix1" />
    </filter>
    <filter
       inkscape:collect="always"
       style="color-interpolation-filters:sRGB"
       id="filter972"
       x="-0.061439999"
       y="-0.078994284"
       width="1.12288"
       height="1.1579886">
      <feGaussianBlur
         inkscape:collect="always"
         stdDeviation="0.4608"
         id="feGaussianBlur974" />
    </filter>
  </defs>
  <g
     id="Template---Icons---App"
     stroke="none"
     stroke-width="1"
     fill="none"
     fill-rule="evenodd">
    <g
       id="App-Icons---@2x"
       transform="translate(-810, 0)">
      <g
         id="32x32@2x"
         transform="translate(810, 0)">
        <g
           id="Artwork"
           transform="translate(6, 6)">
          <mask
             id="mask-7ke33lxyta-2"
             fill="white">
            <use
               xlink:href="#path-7ke33lxyta-1"
               id="use1" />
          </mask>
          <g
             id="Mask">
            <use
               fill="black"
               fill-opacity="1"
               filter="url(#filter-7ke33lxyta-3)"
               xlink:href="#path-7ke33lxyta-1"
               id="use2" />
            <use
               fill="#FFFFFF"
               fill-rule="evenodd"
               xlink:href="#path-7ke33lxyta-1"
               id="use3" />
          </g>
          <g
             id="Icon-Center-Image-Artwork"
             mask="url(#mask-7ke33lxyta-2)">
            <rect
               style="fill:#c1f2ff;fill-opacity:1;stroke-width:0;stroke-linecap:round;stroke-linejoin:round"
               id="rect916"
               width="32"
               height="32"
               x="0"
               y="0"
               inkscape:label="bg"
               transform="scale(1.625)" />
            <path
               id="rect302"
               style="fill:#45423a;fill-opacity:1;stroke-width:0;stroke-linecap:round;stroke-linejoin:round;filter:url(#filter972)"
               d="M 7,9.0000011 V 17 H 9.0000009 V 9.0000011 Z M 9.0000009,17 v 4 h 1.9999981 v -4 z m 1.9999981,4 v 2 H 13 V 21 Z M 13,21 h 2 v -4 h -2 z m 2,-4 h 1.999999 V 9.0000011 H 15 Z M 18.999999,9.0000011 V 11.000002 H 21 V 21 h -2.000001 v 2 H 25 v -2 h -2 v -9.999998 h 2 V 9 Z"
               inkscape:label="shadow"
               transform="scale(1.625)" />
            <path
               id="path970"
               style="fill:#45423a;fill-opacity:1;stroke-width:0;stroke-linecap:round;stroke-linejoin:round"
               d="M 7,9.0000011 V 17 H 9.0000009 V 9.0000011 Z M 9.0000009,17 v 4 h 1.9999981 v -4 z m 1.9999981,4 v 2 H 13 V 21 Z M 13,21 h 2 v -4 h -2 z m 2,-4 h 1.999999 V 9.0000011 H 15 Z M 18.999999,9.0000011 V 11.000002 H 21 V 21 h -2.000001 v 2 H 25 v -2 h -2 v -9.999998 h 2 V 9 Z"
               inkscape:label="VI"
               transform="scale(1.625)" />
          </g>
        </g>
      </g>
    </g>
  </g>
</svg>
