<?xml version="1.0" encoding="UTF-8"?>
<!-- Created with Inkscape (http://www.inkscape.org/) -->
<svg width="32" height="32" version="1.1" viewBox="0 0 32 32" xml:space="preserve" xmlns="http://www.w3.org/2000/svg"><defs><filter id="filter972" x="-.06144" y="-.078994" width="1.1229" height="1.158" color-interpolation-filters="sRGB"><feGaussianBlur stdDeviation="0.4608"/></filter></defs><g stroke-width="0"><rect width="32" height="32" fill="#c1f2ff"/><path d="m7 9v8h2v-8zm2 8v4h2v-4zm2 4v2h2v-2zm2 0h2v-4h-2zm2-4h2v-8h-2zm4-8v2h2v10h-2v2h6v-2h-2v-10h2v-2z" fill="#45423a" filter="url(#filter972)"/><path d="m7 9v8h2v-8zm2 8v4h2v-4zm2 4v2h2v-2zm2 0h2v-4h-2zm2-4h2v-8h-2zm4-8v2h2v10h-2v2h6v-2h-2v-10h2v-2z" fill="#45423a"/></g></svg>
